<svg xmlns="http://www.w3.org/2000/svg" width="26" height="23.151" viewBox="0 0 26 23.151">
    <g id="Group_6008" data-name="Group 6008" transform="translate(15969.999 -6421.849)">
        <path id="Path_14013" data-name="Path 14013" d="M304.11-396.332c-3.3-2.483-10.356-7.8-10.356-7.8A3.44,3.44,0,0,0,291.5-405a3.435,3.435,0,0,0-2.252.869c-6.9,5.16-10.249,7.8-10.249,7.8a1,1,0,0,0-.277,1.387,1,1,0,0,0,.833.445,1,1,0,0,0,.553-.168l.89-.593v10.885a2.681,2.681,0,0,0,2.832,2.49c1.536.05,13.8.049,15.336,0A2.684,2.684,0,0,0,302-384.375v-10.96l1,.667a1,1,0,0,0,.554.168,1,1,0,0,0,.833-.445A1,1,0,0,0,304.11-396.332ZM291.5-388.61a3.724,3.724,0,0,1-3.751-3.688,3.724,3.724,0,0,1,3.751-3.688,3.784,3.784,0,0,1,3.5,2.376,3.507,3.507,0,0,1,.245,1.312A3.725,3.725,0,0,1,291.5-388.61Z" transform="translate(-16248.555 6826.849)" fill="#0a747a"/>
    </g>
</svg>
