<svg xmlns="http://www.w3.org/2000/svg" width="494.07" height="115.794" viewBox="0 0 494.07 115.794">
  <g id="Group_7351" transform="translate(-425.862 -20.377)">
    <path id="Path_19698" d="M279.191,643.074a58.58,58.58,0,0,0,.861-11.6,57.809,57.809,0,1,0-5.353,25.855l-33.017.869a31.769,31.769,0,0,1-48.82-12.892l59.37-1.545Zm-86.407-22.26a31.868,31.868,0,0,1,58.252-1.523Z" transform="translate(639.861 -554.655)" fill="#0a747a"/>
    <path id="Path_19699" d="M187.245,575.182a57.822,57.822,0,1,0,.007,0Zm0,89.56a31.742,31.742,0,1,1,31.735-31.75V633A31.742,31.742,0,0,1,187.245,664.742Z" transform="translate(425.632 -554.669)" fill="#0a747a"/>
    <g id="Group_7222" transform="translate(679.401 20.377)">
      <path id="Path_19700" d="M262.415,630.5a57.74,57.74,0,0,0-115.38,0H146.9v47.268a13.127,13.127,0,0,0,26.254,0V630.5h-.036a31.714,31.714,0,0,1,63.214,0h-.043v47.268a13.127,13.127,0,1,0,26.254.071V630.5Z" transform="translate(-146.9 -575.163)" fill="#0a747a"/>
      <path id="Rectangle_6093" d="M166.307,652.779h0a13.126,13.126,0,0,1-13.127-13.127V594.52a13.131,13.131,0,0,1,13.127-13.127h0a13.126,13.126,0,0,1,13.127,13.127v45.132A13.121,13.121,0,0,1,166.307,652.779Z" transform="translate(-108.475 -537.042)" fill="#0a747a"/>
    </g>
    <path id="Path_19697" d="M208.886,573.271a13.044,13.044,0,0,0-13.041,13.041V608.38a60.242,60.242,0,0,0-63.477,0V586.312a13.041,13.041,0,0,0-26.083,0v89.56a13.041,13.041,0,0,0,26.083,0V649.946a33.287,33.287,0,0,1,63.477,0v25.919a13.041,13.041,0,1,0,26.083,0V586.32a13.035,13.035,0,0,0-13.034-13.049Z" transform="translate(319.578 -552.742)" fill="#0a747a"/>
  </g>
</svg>
