<svg xmlns="http://www.w3.org/2000/svg" width="69.405" height="16.266" viewBox="0 0 69.405 16.266">
  <g id="Group_7224" transform="translate(-425.862 -20.377)">
    <path id="Path_19698" d="M180.565,584.721a8.229,8.229,0,0,0,.121-1.629,8.121,8.121,0,1,0-.752,3.632l-4.638.122a4.463,4.463,0,0,1-6.858-1.811l8.34-.217Zm-12.138-3.127a4.477,4.477,0,0,1,8.183-.214Z" transform="translate(314.578 -554.786)" fill="#fff"/>
    <path id="Path_19699" d="M137.555,575.182a8.122,8.122,0,1,0,8.123,8.122,8.122,8.122,0,0,0-8.123-8.122Zm0,12.581a4.459,4.459,0,1,1,4.458-4.46h0A4.459,4.459,0,0,1,137.555,587.763Z" transform="translate(314.578 -554.786)" fill="#fff"/>
    <g id="Group_7222" transform="translate(314.578 -554.786)">
      <path id="Path_19700" d="M163.127,582.937a8.111,8.111,0,0,0-16.208,0H146.9v6.64a1.844,1.844,0,0,0,3.688,0v-6.64h-.005a4.455,4.455,0,0,1,8.88,0h-.006v6.64a1.844,1.844,0,1,0,3.688.01v-6.65Z" fill="#fff"/>
      <path id="Rectangle_6093" d="M155.024,591.421h0a1.844,1.844,0,0,1-1.844-1.844v-6.34a1.845,1.845,0,0,1,1.844-1.844h0a1.844,1.844,0,0,1,1.844,1.844v6.34A1.843,1.843,0,0,1,155.024,591.421Z" fill="#fff"/>
    </g>
    <path id="Path_19697" d="M120.7,573.271a1.832,1.832,0,0,0-1.832,1.832v3.1a8.463,8.463,0,0,0-8.917,0v-3.1a1.832,1.832,0,1,0-3.664,0v12.581a1.832,1.832,0,0,0,3.664,0v-3.642a4.676,4.676,0,0,1,8.917,0v3.641a1.832,1.832,0,1,0,3.664,0V575.1a1.831,1.831,0,0,0-1.831-1.833Z" transform="translate(319.578 -552.873)" fill="#fff"/>
  </g>
</svg>
