<svg xmlns="http://www.w3.org/2000/svg" width="30.001" height="19.998" viewBox="0 0 30.001 19.998">
    <g id="Group_6009" data-name="Group 6009" transform="translate(15911.913 -6424)">
        <g id="Group_5186" data-name="Group 5186" transform="translate(-16006.912 5748)">
            <g id="Group_5131" data-name="Group 5131" transform="translate(170.051 597.008)">
                <path id="Subtraction_3" data-name="Subtraction 3" d="M15859.86-6325.01h-16a7.006,7.006,0,0,1-7-7v-6a7.009,7.009,0,0,1,7-7h16a7.009,7.009,0,0,1,7,7v6A7.006,7.006,0,0,1,15859.86-6325.01Zm-10-14.3a1,1,0,0,0-1,1v6.6a1,1,0,0,0,1,1,.976.976,0,0,0,.482-.127l5.94-3.3a.989.989,0,0,0,.515-.878.984.984,0,0,0-.514-.87l-5.941-3.3A.989.989,0,0,0,15849.863-6339.309Z" transform="translate(-15911.912 6424)" fill="#0a747a"/>
            </g>
        </g>
    </g>
</svg>
