<svg xmlns="http://www.w3.org/2000/svg" width="30" height="20" viewBox="0 0 30 20">
  <g id="Group_6006" data-name="Group 6006" transform="translate(15911.912 -6463)">
    <g id="Group_5999" data-name="Group 5999" transform="translate(-16006.912 5787)">
      <g id="Group_5131" data-name="Group 5131" transform="translate(170.051 597.008)">
        <g id="Rectangle_3076" data-name="Rectangle 3076" transform="translate(-75.051 78.992)" fill="none" stroke="#65676b" stroke-width="1">
          <rect width="30" height="20" rx="7" stroke="none"/>
          <rect x="0.5" y="0.5" width="29" height="19" rx="6.5" fill="none"/>
        </g>
        <g id="Polygon_6" data-name="Polygon 6" transform="translate(-54.051 83.992) rotate(90)" fill="none">
          <path d="M4.126,1.573a1,1,0,0,1,1.748,0l3.3,5.941A1,1,0,0,1,8.3,9H1.7A1,1,0,0,1,.825,7.514Z" stroke="none"/>
          <path d="M 5 2.059126853942871 L 1.699509620666504 7.999996662139893 L 8.300479888916016 7.999996662139893 L 5.000010013580322 2.059136867523193 C 5.000007629394531 2.05913257598877 5.000007152557373 2.059125900268555 5 2.059126853942871 M 5 1.059128761291504 C 5.341827392578125 1.059128761291504 5.68365478515625 1.230581283569336 5.874159812927246 1.573486328125 L 9.174639701843262 7.51435661315918 C 9.544939994812012 8.180887222290039 9.062970161437988 8.999996185302734 8.300490379333496 8.999996185302734 L 1.699509620666504 8.999996185302734 C 0.9370298385620117 8.999996185302734 0.4550600051879883 8.180887222290039 0.8253602981567383 7.51435661315918 L 4.125840187072754 1.573486328125 C 4.31634521484375 1.230581283569336 4.658172607421875 1.059128761291504 5 1.059128761291504 Z" stroke="none" fill="#65676b"/>
        </g>
      </g>
    </g>
  </g>
</svg>
