<svg xmlns="http://www.w3.org/2000/svg" width="83.786" height="22.98" viewBox="0 0 83.786 22.98">
  <g id="Group_7356" data-name="Group 7356" transform="translate(185.327 -803.838)">
    <g id="Group_7351" data-name="Group 7351" transform="translate(-185.327 803.838)">
      <circle id="Ellipse_2346" data-name="Ellipse 2346" cx="11.49" cy="11.49" r="11.49" fill="#ea501f"/>
      <g id="Group_7146" data-name="Group 7146" transform="translate(5.418 3.702)">
        <g id="Group_7145" data-name="Group 7145">
          <path id="Path_19667" data-name="Path 19667" d="M20.863,18.012h2.763a5.986,5.986,0,0,1,.719-2.425,2.4,2.4,0,0,1,2-1.387,2.412,2.412,0,0,1,2,1.387,5.968,5.968,0,0,1,.719,2.425h2.759a.581.581,0,0,1,.594.594l-.554,7.731a1.493,1.493,0,0,1-1.563,1.523h-7.9a1.508,1.508,0,0,1-1.563-1.523l-.558-7.727a.586.586,0,0,1,.594-.6Zm3.453,0H28.36a5.222,5.222,0,0,0-.624-2.08,1.75,1.75,0,0,0-1.394-1.042,1.763,1.763,0,0,0-1.4,1.046A5.263,5.263,0,0,0,24.316,18.012Z" transform="translate(-20.268 -14.2)" fill="#fff"/>
          <path id="Path_19668" data-name="Path 19668" d="M127.878,168.1a.28.28,0,1,1,.316-.462c.081.055.165.11.257.165a3.477,3.477,0,0,0,1.736.587,1.191,1.191,0,0,0,1.042-.51h0c.015-.026.029-.04.033-.051a1.38,1.38,0,0,0,.147-.33.992.992,0,0,0-.037-.675,1.417,1.417,0,0,0-.587-.62h0a2.852,2.852,0,0,0-.741-.308,2.974,2.974,0,0,1-1.614-.917,1.414,1.414,0,0,1,0-1.629,1.582,1.582,0,0,1,1.325-.745,3.461,3.461,0,0,1,1.8.411.281.281,0,0,1-.257.5,2.883,2.883,0,0,0-1.5-.352,1.034,1.034,0,0,0-.87.451.9.9,0,0,0-.04,1.024,2.472,2.472,0,0,0,1.317.708,3.632,3.632,0,0,1,.881.371h0a1.953,1.953,0,0,1,.811.877,1.554,1.554,0,0,1,.066,1.053,1.828,1.828,0,0,1-.209.47c-.022.033-.037.059-.048.077h0a1.739,1.739,0,0,1-1.5.756,4.011,4.011,0,0,1-2.029-.668A3.271,3.271,0,0,1,127.878,168.1Z" transform="translate(-123.811 -157.155)" fill="#ea501f"/>
        </g>
      </g>
    </g>
    <g id="Group_7353" data-name="Group 7353" transform="translate(-152.333 808.838)">
      <path id="Path_19669" data-name="Path 19669" d="M9.846,422.142a.534.534,0,1,1,.593-.889q.222.156.489.311a6.608,6.608,0,0,0,3.29,1.111,2.265,2.265,0,0,0,1.971-.963h0c.03-.044.059-.074.059-.1a2.89,2.89,0,0,0,.282-.622,1.881,1.881,0,0,0-.074-1.274,2.593,2.593,0,0,0-1.111-1.171h0a6,6,0,0,0-1.408-.593,5.707,5.707,0,0,1-3.067-1.734,2.68,2.68,0,0,1,0-3.082,2.975,2.975,0,0,1,2.5-1.408,6.563,6.563,0,0,1,3.408.785.53.53,0,0,1-.474.948,5.464,5.464,0,0,0-2.845-.667,1.926,1.926,0,0,0-1.645.859,1.694,1.694,0,0,0-.074,1.941,4.691,4.691,0,0,0,2.489,1.348,6.358,6.358,0,0,1,1.66.711h0a3.675,3.675,0,0,1,1.526,1.66,2.87,2.87,0,0,1,.119,1.986,3.65,3.65,0,0,1-.4.889.95.95,0,0,0-.089.148h0a3.28,3.28,0,0,1-2.86,1.423,7.628,7.628,0,0,1-3.838-1.26A5.709,5.709,0,0,0,9.846,422.142Z" transform="translate(-9.611 -411.711)" fill="#ea501f"/>
      <path id="Path_19670" data-name="Path 19670" d="M75.1,412.3a.534.534,0,0,1,1.067,0v11.01a.534.534,0,0,1-1.067,0Z" transform="translate(-65.396 -411.787)" fill="#ea501f"/>
      <path id="Path_19671" data-name="Path 19671" d="M77.03,445.935a.537.537,0,0,1-.83-.682,5.492,5.492,0,0,1,2.638-1.867,3.4,3.4,0,0,1,1.837-.059,2.577,2.577,0,0,1,1.437.993,3.039,3.039,0,0,1,.533,1.808v3.942a.533.533,0,1,1-1.067,0v-3.942a2.058,2.058,0,0,0-.326-1.2,1.558,1.558,0,0,0-.845-.578,2.3,2.3,0,0,0-1.26.044A4.587,4.587,0,0,0,77.03,445.935Z" transform="translate(-66.229 -438.557)" fill="#ea501f"/>
      <path id="Path_19672" data-name="Path 19672" d="M134.49,443.2a3.672,3.672,0,0,1,2.608,1.082h0a3.688,3.688,0,1,1-5.216,5.216h0a3.685,3.685,0,0,1,0-5.216h0a3.7,3.7,0,0,1,2.608-1.082Zm1.867,1.823a2.647,2.647,0,0,0-3.734,0h0a2.647,2.647,0,0,0,0,3.734h0a2.64,2.64,0,0,0,3.734-3.734Z" transform="translate(-112.842 -438.534)" fill="#ea501f"/>
      <path id="Path_19673" data-name="Path 19673" d="M190.8,443.733a.533.533,0,0,1,1.067,0v.667a.891.891,0,0,1,.119-.119h0a3.685,3.685,0,0,1,5.216,0h0a3.688,3.688,0,1,1-5.216,5.216h0a.892.892,0,0,0-.119-.119v4.845a.533.533,0,1,1-1.067,0V443.733Zm5.646,1.289a2.647,2.647,0,0,0-3.734,0h0a2.647,2.647,0,0,0,0,3.734h0a2.644,2.644,0,0,0,1.867.771,2.64,2.64,0,0,0,1.867-4.5Z" transform="translate(-163.951 -438.534)" fill="#ea501f"/>
      <path id="Path_19674" data-name="Path 19674" d="M255.464,443.2a3.245,3.245,0,0,1,2.341.978,3.6,3.6,0,0,1,.889,1.541c.459,1.5-.415,1.437-.682,1.437h-4.9a4.728,4.728,0,0,0,.237.978,2.257,2.257,0,0,0,.83,1.037,2.56,2.56,0,0,0,1.393.356,5.421,5.421,0,0,0,2.06-.489.531.531,0,1,1,.415.978,6.8,6.8,0,0,1-2.46.563,3.44,3.44,0,0,1-1.971-.519,2.9,2.9,0,0,1-1.245-1.526,4.006,4.006,0,0,1,.756-4.357,3.164,3.164,0,0,1,2.341-.978Zm1.6,1.734a2.254,2.254,0,0,0-3.2,0,2.733,2.733,0,0,0-.7,1.141h4.608A3.106,3.106,0,0,0,257.064,444.934Z" transform="translate(-216.124 -438.534)" fill="#ea501f"/>
      <path id="Path_19675" data-name="Path 19675" d="M310.064,443.2a3.246,3.246,0,0,1,2.341.978,3.594,3.594,0,0,1,.889,1.541c.459,1.5-.415,1.437-.682,1.437h-4.9a4.725,4.725,0,0,0,.237.978,2.257,2.257,0,0,0,.83,1.037,2.56,2.56,0,0,0,1.393.356,5.421,5.421,0,0,0,2.06-.489.531.531,0,0,1,.415.978,6.8,6.8,0,0,1-2.46.563,3.44,3.44,0,0,1-1.971-.519,2.9,2.9,0,0,1-1.245-1.526,4.006,4.006,0,0,1,.756-4.357,3.164,3.164,0,0,1,2.341-.978Zm1.6,1.734a2.254,2.254,0,0,0-3.2,0,2.732,2.732,0,0,0-.7,1.141h4.608A3.105,3.105,0,0,0,311.664,444.934Z" transform="translate(-262.633 -438.534)" fill="#ea501f"/>
    </g>
  </g>
</svg>
