<svg xmlns="http://www.w3.org/2000/svg" width="73.894" height="22.98" viewBox="0 0 73.894 22.98">
  <g id="Group_7354" data-name="Group 7354" transform="translate(186.5 -739.985)">
    <circle id="Ellipse_2394" data-name="Ellipse 2394" cx="11.49" cy="11.49" r="11.49" transform="translate(-186.5 739.985)" fill="#2da7f8"/>
    <g id="Group_7350" data-name="Group 7350" transform="translate(-183.017 746.955)">
      <path id="Path_19661" data-name="Path 19661" d="M-2080.274,503.092l1.9-2.01a4.054,4.054,0,0,1,.3-.3.621.621,0,0,1,.866.007.583.583,0,0,1,.078.828,12.1,12.1,0,0,1-1.19,1.232c-.245.252-.657.471-.7.75-.041.261.4.494.635.74.449.482.911.953,1.366,1.43.39.41.445.793.157,1.069-.312.3-.744.249-1.126-.157-.67-.712-1.329-1.435-1.992-2.154l-.371-.4c0,.805,0,1.523,0,2.242a.6.6,0,0,1-.6.652.627.627,0,0,1-.724-.628q-.011-2.556,0-5.112a.643.643,0,0,1,.661-.674.632.632,0,0,1,.659.7c0,.589,0,1.178,0,1.768Z" transform="translate(2088.541 -497.034)" fill="#fff"/>
      <path id="Path_19662" data-name="Path 19662" d="M-2184.067,505.1c0-.7-.006-1.408,0-2.111,0-.2-.052-.281-.26-.268a6.546,6.546,0,0,1-.659,0c-.423-.015-.658-.24-.656-.62a.6.6,0,0,1,.659-.617q1.567-.006,3.134,0a.617.617,0,0,1,.676.609.612.612,0,0,1-.66.629c-.066,0-.132,0-.2,0-.713,0-.713,0-.713.729,0,1.221,0,2.441,0,3.661a.652.652,0,0,1-.833.7.575.575,0,0,1-.489-.641c-.007-.693,0-1.385,0-2.078Z" transform="translate(2185.638 -497.857)" fill="#fff"/>
      <path id="Path_19663" data-name="Path 19663" d="M-1999.766,503.8c0-.846-.008-1.693,0-2.539a.656.656,0,0,1,1-.594.594.594,0,0,1,.324.568c0,1.7,0,3.408,0,5.111a.592.592,0,0,1-.644.634.6.6,0,0,1-.673-.641C-1999.773,505.5-1999.766,504.649-1999.766,503.8Z" transform="translate(2012.039 -497.01)" fill="#fff"/>
      <path id="Path_19664" data-name="Path 19664" d="M-2112.4,503.862c0,.8,0,1.6,0,2.406,0,.5-.229.746-.674.741-.425,0-.648-.25-.649-.733q0-2.456,0-4.911c0-.488.247-.759.675-.759.4,0,.646.281.648.751C-2112.4,502.192-2112.4,503.027-2112.4,503.862Z" transform="translate(2118.474 -497.037)" fill="#fff"/>
      <path id="Path_19665" data-name="Path 19665" d="M-2012.879,448.091a1.526,1.526,0,0,1,1.535-1.551,1.573,1.573,0,0,1,1.553,1.554,1.579,1.579,0,0,1-1.541,1.538A1.53,1.53,0,0,1-2012.879,448.091Zm1.545-.235c-.3,0-.593.014-.888,0-.215-.013-.307.072-.307.275a1.172,1.172,0,0,0,.595,1.067,1.091,1.091,0,0,0,1.213-.022,1.16,1.16,0,0,0,.552-1.087c-.006-.16-.073-.236-.244-.231C-2010.72,447.863-2011.027,447.856-2011.334,447.856Z" transform="translate(2024.283 -446.54)" fill="#fff"/>
      <path id="Path_19666" data-name="Path 19666" d="M-2125.64,449.631a1.57,1.57,0,0,1-1.547-1.561,1.563,1.563,0,0,1,1.573-1.531,1.568,1.568,0,0,1,1.531,1.541A1.57,1.57,0,0,1-2125.64,449.631Zm0-1.776c-.3,0-.592.011-.887,0-.2-.01-.286.075-.286.261a1.153,1.153,0,0,0,.549,1.056,1.118,1.118,0,0,0,1.242.014,1.16,1.16,0,0,0,.566-1.079c0-.164-.071-.259-.262-.251C-2125.026,447.865-2125.334,447.855-2125.641,447.855Z" transform="translate(2131.046 -446.539)" fill="#fff"/>
    </g>
    <g id="Group_7352" data-name="Group 7352" transform="translate(-154.424 743.051)">
      <path id="Path_19676" data-name="Path 19676" d="M-1733.884,1330.622v-.169q0-2.428,0-4.857a1.68,1.68,0,0,1,.036-.369.957.957,0,0,1,1.12-.745.931.931,0,0,1,.86.889c.012.148.019.3.019.445q0,3.643,0,7.285a1.909,1.909,0,0,1-.082.555.939.939,0,0,1-1.143.578,1.3,1.3,0,0,1-.689-.466q-1.707-2.254-3.417-4.505l-.765-1.007c-.02-.026-.044-.048-.094-.1v.2q0,2.443,0,4.886a.946.946,0,0,1-.731.991.987.987,0,0,1-1.291-1q.009-3.844,0-7.687a.964.964,0,0,1,.5-.956,1.019,1.019,0,0,1,1.143.13,1.89,1.89,0,0,1,.351.379q2.024,2.7,4.042,5.395c.035.046.072.089.108.133Z" transform="translate(1773.665 -1318.902)" fill="#2da7f8"/>
      <path id="Path_19677" data-name="Path 19677" d="M-2511.033,1329.073l1.1,1.146c.744.778,1.491,1.555,2.232,2.337a1.1,1.1,0,0,1,.337.771.9.9,0,0,1-.8.92,1.053,1.053,0,0,1-.988-.321c-.541-.567-1.076-1.141-1.61-1.715q-1.059-1.139-2.115-2.282c-.016-.017-.035-.032-.084-.076v.2c0,1.068,0,2.136,0,3.2a.906.906,0,0,1-.577.919,1.058,1.058,0,0,1-1.156-.172.9.9,0,0,1-.29-.648c0-.059,0-.119,0-.178,0-2.533,0-5.066.005-7.6a1.5,1.5,0,0,1,.13-.6.972.972,0,0,1,1.042-.5.918.918,0,0,1,.824.723,1.339,1.339,0,0,1,.024.3q0,1.34,0,2.682v.2c.057-.052.092-.08.123-.112q1.6-1.7,3.19-3.4a1.02,1.02,0,0,1,1.3-.279.914.914,0,0,1,.371,1.307,3.823,3.823,0,0,1-.523.625c-.524.529-1.063,1.042-1.59,1.569C-2510.408,1328.41-2510.712,1328.738-2511.033,1329.073Z" transform="translate(2525.5 -1318.895)" fill="#2da7f8"/>
      <path id="Path_19678" data-name="Path 19678" d="M-2024.516,1330.794l.37-.992q.849-2.28,1.7-4.56a1.019,1.019,0,0,1,.679-.7,1.018,1.018,0,0,1,1.027.272.92.92,0,0,1,.23,1c-.181.528-.395,1.046-.6,1.566q-1.2,3.066-2.412,6.131c-.027.069-.059.136-.09.2a.937.937,0,0,1-.92.583.927.927,0,0,1-.906-.6c-.192-.451-.37-.907-.549-1.362q-1.237-3.141-2.471-6.283a1.337,1.337,0,0,1-.107-.7.987.987,0,0,1,.745-.815.884.884,0,0,1,1.033.363,5.088,5.088,0,0,1,.4.889q.91,2.416,1.807,4.836C-2024.566,1330.674-2024.548,1330.714-2024.516,1330.794Z" transform="translate(2053.581 -1318.933)" fill="#2da7f8"/>
      <path id="Path_19679" data-name="Path 19679" d="M-2863.322,1329.242v.215q0,3.3,0,6.6a.939.939,0,0,1-.72,1,.98.98,0,0,1-1.3-.99q.007-3.315,0-6.631c0-.194,0-.193-.194-.194-.452,0-.9,0-1.356-.005a.875.875,0,0,1-.848-1.043.908.908,0,0,1,.951-.812c1.649.013,3.3,0,4.946.005a.84.84,0,0,1,.838.548.977.977,0,0,1-.188,1.066.745.745,0,0,1-.547.233c-.462.007-.924.006-1.386.007Z" transform="translate(2867.741 -1321.724)" fill="#2da7f8"/>
      <path id="Path_19680" data-name="Path 19680" d="M-2621.969,1329.291q0,1.936,0,3.872a.936.936,0,0,1-.617.969,1,1,0,0,1-1.4-.9c0-.059-.006-.119-.006-.178,0-2.5,0-5,.005-7.505a1.676,1.676,0,0,1,.124-.633.966.966,0,0,1,1.107-.494.926.926,0,0,1,.784.865c0,.069.006.139.006.208Z" transform="translate(2631.259 -1318.828)" fill="#2da7f8"/>
      <path id="Path_19681" data-name="Path 19681" d="M-2237.149,1329.623c0-1.306-.008-2.613,0-3.919a.933.933,0,0,1,1.056-.966.951.951,0,0,1,.961,1c0,.362,0,.725,0,1.088q0,3.33,0,6.661a.959.959,0,0,1-.627.981,1,1,0,0,1-1.395-.937c0-1.3,0-2.6,0-3.9Z" transform="translate(2255.943 -1319.159)" fill="#2da7f8"/>
      <path id="Path_19682" data-name="Path 19682" d="M-2665.332,1139.869a2.349,2.349,0,0,1-2.346,2.361,2.36,2.36,0,0,1-2.358-2.355,2.343,2.343,0,0,1,2.352-2.353A2.33,2.33,0,0,1-2665.332,1139.869Zm-2.341-.351c-.536,0-1.072,0-1.608,0-.088,0-.162.005-.164.117a3.423,3.423,0,0,0-.009.694,1.79,1.79,0,0,0,2.115,1.462,1.811,1.811,0,0,0,1.427-2.141c-.025-.105-.064-.134-.167-.133C-2666.611,1139.52-2667.142,1139.518-2667.673,1139.518Z" transform="translate(2675.927 -1137.521)" fill="#2da7f8"/>
      <path id="Path_19683" data-name="Path 19683" d="M-2279.766,1137.518a2.33,2.33,0,0,1,2.334,2.44,2.336,2.336,0,0,1-2.379,2.267,2.349,2.349,0,0,1-2.322-2.371A2.337,2.337,0,0,1-2279.766,1137.518Zm0,2c-.541,0-1.082,0-1.623,0-.1,0-.153.021-.155.126a3.689,3.689,0,0,0-.011.692,1.8,1.8,0,0,0,2.136,1.454,1.813,1.813,0,0,0,1.408-2.134c-.023-.118-.072-.139-.177-.138C-2278.714,1139.516-2279.241,1139.514-2279.767,1139.514Z" transform="translate(2299.583 -1137.517)" fill="#2da7f8"/>
      <path id="Path_19684" data-name="Path 19684" d="M-2121.954,1587.672a1.031,1.031,0,0,1-1.053-1.036,1.03,1.03,0,0,1,1.047-1.057,1.049,1.049,0,0,1,1.062,1.051A1.049,1.049,0,0,1-2121.954,1587.672Z" transform="translate(2145.199 -1572.227)" fill="#2da7f8"/>
    </g>
  </g>
</svg>
